<?xml version="1.0" encoding="UTF-8"?>
<svg width="118px" height="12px" viewBox="0 0 118 12" version="1.1" xmlns="http://www.w3.org/2000/svg" xmlns:xlink="http://www.w3.org/1999/xlink">
    <!-- Generator: Sketch 48.2 (47327) - http://www.bohemiancoding.com/sketch -->
    <title>Logo</title>
    <desc>Created with Sketch.</desc>
    <defs/>
    <g id="ethworks-web" stroke="none" stroke-width="1" fill="none" fill-rule="evenodd" transform="translate(-930.000000, -5565.000000)">
        <g id="//Content" transform="translate(-7.000000, -450.000000)">
            <g id="section-8" transform="translate(102.000000, 5725.000000)">
                <g id="copywrites" transform="translate(758.000000, 281.000000)">
                    <g id="Logo" transform="translate(77.000000, 9.000000)">
                        <polygon id="Path" fill="#00A5FF" points="0 12 0 0 9 0 9 2.42696629 0 2.42696629 0 4.68539326 9 4.68539326 9 7.11235955 0 7.11235955 0 9.57303371 9 9.57303371 9 12"/>
                        <path d="M15.638012,11.8520548 L15.638012,2.64657534 L12,2.64657534 L12,0.147945205 L22.5365064,0.147945205 L22.5365064,2.64657534 L18.8984944,2.64657534 L18.8984944,11.8520548 L15.638012,11.8520548 Z M34.228482,0.147945205 L37.3860018,0.147945205 L37.3860018,11.8520548 L34.228482,11.8520548 L34.228482,7.11780822 L29.286277,7.11780822 L29.286277,11.8520548 L26.1287572,11.8520548 L26.1287572,0.147945205 L29.286277,0.147945205 L29.286277,4.70136986 L34.228482,4.70136986 L34.228482,0.147945205 Z M56.9374562,0.147945205 L59.9920134,0.147945205 L55.6161027,11.8520548 L53.0591981,11.8520548 L50.5022935,4.89863014 L47.8939075,11.8520548 L45.3370029,11.8520548 L40.9782527,0.147945205 L44.2558955,0.147945205 L46.7613189,7.52876712 L49.4898279,0.147945205 L51.6863634,0.147945205 L54.3119098,7.66027397 L56.9374562,0.147945205 Z M65.7807997,11.2684932 C64.8541317,10.7808195 64.1419808,10.0821963 63.6443257,9.17260274 C63.1466707,8.26300915 62.8978469,7.20000608 62.8978469,5.98356164 C62.8978469,4.76711721 63.1495307,3.70959353 63.6529059,2.8109589 C64.1562812,1.91232427 64.8684321,1.21918052 65.78938,0.731506849 C66.7103278,0.243833178 67.7942844,0 69.0412822,0 C70.2882799,0 71.3722365,0.243833178 72.2931844,0.731506849 C73.2141323,1.21918052 73.9205631,1.91232427 74.412498,2.8109589 C74.9044329,3.70959353 75.1503966,4.76711721 75.1503966,5.98356164 C75.1503966,7.20000608 74.9044329,8.26300915 74.412498,9.17260274 C73.9205631,10.0821963 73.2141323,10.7808195 72.2931844,11.2684932 C71.3722365,11.7561668 70.2882799,12 69.0412822,12 C67.7942844,12 66.7074678,11.7561668 65.7807997,11.2684932 Z M71.1949166,8.71232877 C71.7154524,8.08766811 71.9757164,7.17808816 71.9757164,5.98356164 C71.9757164,4.79999408 71.7154524,3.89863323 71.1949166,3.27945205 C70.6743809,2.66027088 69.9565099,2.35068493 69.0412822,2.35068493 C68.1260545,2.35068493 67.4110435,2.65753118 66.8962279,3.27123288 C66.3814124,3.88493458 66.1240084,4.78903512 66.1240084,5.98356164 C66.1240084,7.18904712 66.3814124,8.10136677 66.8962279,8.72054795 C67.4110435,9.33972912 68.1260545,9.64931507 69.0412822,9.64931507 C69.9565099,9.64931507 70.6743809,9.33698942 71.1949166,8.71232877 Z M89.9484108,11.8520548 L86.5334844,11.8520548 L84.9547245,7.95616438 C84.771679,7.51780603 84.3426724,7.29863014 83.667692,7.29863014 L82.5007825,7.29863014 L82.5007825,11.8520548 L79.3261022,11.8520548 L79.3261022,0.147945205 L85.0062058,0.147945205 C86.4820105,0.147945205 87.5917075,0.452051753 88.33533,1.06027397 C89.0789525,1.66849619 89.4507582,2.53698066 89.4507582,3.66575342 C89.4507582,4.45479847 89.2305348,5.13698342 88.7900815,5.71232877 C88.3496281,6.28767411 87.7289987,6.69588921 86.9281744,6.9369863 C87.2713848,7.00274005 87.5802695,7.15616318 87.8548378,7.39726027 C88.1294062,7.63835737 88.3467695,7.96164181 88.5069343,8.36712329 L89.9484108,11.8520548 Z M85.9843505,4.69315068 C86.2932399,4.49040995 86.4476823,4.1753446 86.4476823,3.74794521 C86.4476823,3.29862789 86.2960999,2.97534345 85.9929308,2.77808219 C85.6897616,2.58082093 85.1892539,2.48219178 84.4913928,2.48219178 L82.4664616,2.48219178 L82.4664616,4.99726027 L84.4913928,4.99726027 C85.1778136,4.99726027 85.6754612,4.89589142 85.9843505,4.69315068 Z M105.810372,11.8520548 L101.983595,11.8520548 L97.0928714,6.54246575 L97.0928714,11.8520548 L93.8667098,11.8520548 L93.8667098,0.147945205 L97.0928714,0.147945205 L97.0928714,5.17808219 L101.846312,0.147945205 L105.621607,0.147945205 L100.21607,5.70410959 L105.810372,11.8520548 Z M109.986077,11.6547945 C109.09373,11.4246564 108.367279,11.1123307 107.806702,10.7178082 L108.819168,8.53150685 C109.414066,8.89315249 110.046136,9.16986205 110.715396,9.36164384 C111.384656,9.55342562 112.056766,9.64931507 112.731747,9.64931507 C113.418168,9.64931507 113.944416,9.55890501 114.310507,9.37808219 C114.676598,9.19725937 114.859641,8.9424674 114.859641,8.61369863 C114.859641,8.31780674 114.693758,8.07397356 114.361988,7.88219178 C114.030218,7.69041 113.406728,7.50137079 112.491501,7.31506849 C111.336026,7.09588932 110.437972,6.82465915 109.797313,6.50136986 C109.156653,6.17808058 108.707626,5.79726247 108.450219,5.35890411 C108.192811,4.92054575 108.064109,4.38904422 108.064109,3.76438356 C108.064109,3.05205123 108.275752,2.40822205 108.699045,1.83287671 C109.122338,1.25753137 109.717227,0.808220795 110.48373,0.484931507 C111.250233,0.161642219 112.125407,0 113.109276,0 C113.990183,0 114.845336,0.117807041 115.674761,0.353424658 C116.504186,0.589042274 117.153416,0.898628219 117.62247,1.28219178 L116.627165,3.46849315 C116.089469,3.10684751 115.52318,2.83013795 114.928282,2.63835616 C114.333384,2.44657438 113.738495,2.35068493 113.143597,2.35068493 C112.56014,2.35068493 112.091092,2.45753318 111.736442,2.67123288 C111.381791,2.88493258 111.204468,3.17260093 111.204468,3.53424658 C111.204468,3.73150784 111.267389,3.89588975 111.393233,4.02739726 C111.519077,4.15890477 111.7536,4.2876706 112.096811,4.41369863 C112.440021,4.53972666 112.954829,4.67397189 113.64125,4.81643836 C114.750963,5.04657649 115.623277,5.32328605 116.258216,5.64657534 C116.893155,5.96986463 117.342182,6.34794304 117.60531,6.78082192 C117.868438,7.21370079 118,7.73150384 118,8.33424658 C118,9.4739783 117.536673,10.3698598 116.610005,11.0219178 C115.683337,11.6739759 114.379157,12 112.697426,12 C111.782198,12 110.878424,11.8849327 109.986077,11.6547945 Z" id="ETHWORKS" fill="#303363"/>
                    </g>
                </g>
            </g>
        </g>
    </g>
</svg>